<?xml version="1.0" encoding="UTF-8"?>
<svg xmlns="http://www.w3.org/2000/svg" xmlns:xlink="http://www.w3.org/1999/xlink" width="154pt" height="154pt" viewBox="0 0 154 154" version="1.1">
<g id="surface144551">
<path style=" stroke:none;fill-rule:nonzero;fill:rgb(25.882353%,64.705882%,96.078431%);fill-opacity:1;" d="M 99.457031 115.5 L 19.25 115.5 L 19.25 9.625 L 73.792969 9.625 L 99.457031 35.292969 Z M 99.457031 115.5 "/>
<path style=" stroke:none;fill-rule:nonzero;fill:rgb(88.235294%,96.078431%,99.607843%);fill-opacity:1;" d="M 94.644531 38.5 L 70.582031 38.5 L 70.582031 14.4375 Z M 94.644531 38.5 "/>
<path style=" stroke:none;fill-rule:nonzero;fill:rgb(8.235294%,39.607843%,75.294118%);fill-opacity:1;" d="M 35.292969 51.332031 L 86.625 51.332031 L 86.625 57.75 L 35.292969 57.75 Z M 35.292969 64.167969 L 73.792969 64.167969 L 73.792969 70.582031 L 35.292969 70.582031 Z M 35.292969 77 L 86.625 77 L 86.625 83.417969 L 35.292969 83.417969 Z M 35.292969 89.832031 L 73.792969 89.832031 L 73.792969 96.25 L 35.292969 96.25 Z M 35.292969 89.832031 "/>
<path style=" stroke:none;fill-rule:nonzero;fill:rgb(56.470588%,79.215686%,97.647059%);fill-opacity:1;" d="M 134.75 141.167969 L 54.542969 141.167969 L 54.542969 35.292969 L 109.082031 35.292969 L 134.75 60.957031 Z M 134.75 141.167969 "/>
<path style=" stroke:none;fill-rule:nonzero;fill:rgb(88.235294%,96.078431%,99.607843%);fill-opacity:1;" d="M 129.9375 64.167969 L 105.875 64.167969 L 105.875 40.105469 Z M 129.9375 64.167969 "/>
<path style=" stroke:none;fill-rule:nonzero;fill:rgb(9.803922%,46.27451%,82.352941%);fill-opacity:1;" d="M 70.582031 77 L 118.707031 77 L 118.707031 83.417969 L 70.582031 83.417969 Z M 70.582031 89.832031 L 105.875 89.832031 L 105.875 96.25 L 70.582031 96.25 Z M 70.582031 102.667969 L 118.707031 102.667969 L 118.707031 109.082031 L 70.582031 109.082031 Z M 70.582031 115.5 L 105.875 115.5 L 105.875 121.917969 L 70.582031 121.917969 Z M 70.582031 115.5 "/>
</g>
</svg>
