<?xml version="1.0" encoding="UTF-8"?>
<svg xmlns="http://www.w3.org/2000/svg" xmlns:xlink="http://www.w3.org/1999/xlink" width="154pt" height="154pt" viewBox="0 0 154 154" version="1.1">
<g id="surface144822">
<path style=" stroke:none;fill-rule:nonzero;fill:rgb(100%,62.745098%,0%);fill-opacity:1;" d="M 121.917969 38.5 L 70.582031 38.5 L 57.75 25.667969 L 25.667969 25.667969 C 18.609375 25.667969 12.832031 31.441406 12.832031 38.5 L 12.832031 115.5 C 12.832031 122.558594 18.609375 128.332031 25.667969 128.332031 L 125.125 128.332031 C 130.578125 128.332031 134.75 124.164062 134.75 118.707031 L 134.75 51.332031 C 134.75 44.273438 128.976562 38.5 121.917969 38.5 Z M 121.917969 38.5 "/>
<path style=" stroke:none;fill-rule:nonzero;fill:rgb(100%,79.215686%,15.686275%);fill-opacity:1;" d="M 135.390625 57.75 L 49.085938 57.75 C 42.992188 57.75 37.539062 62.242188 36.574219 68.335938 L 25.667969 128.332031 L 127.371094 128.332031 C 133.464844 128.332031 138.921875 123.839844 139.882812 117.746094 L 147.902344 72.828125 C 149.507812 65.128906 143.414062 57.75 135.390625 57.75 Z M 135.390625 57.75 "/>
</g>
</svg>
