<?xml version="1.0" encoding="UTF-8"?>
<svg xmlns="http://www.w3.org/2000/svg" xmlns:xlink="http://www.w3.org/1999/xlink" width="154pt" height="154pt" viewBox="0 0 154 154" version="1.1">
<g id="surface143324">
<path style=" stroke:none;fill-rule:nonzero;fill:rgb(96.078431%,76.078431%,46.27451%);fill-opacity:1;" d="M 24.5 145.335938 C 22.136719 145.335938 20.210938 143.375 20.210938 140.96875 L 20.210938 13.03125 C 20.210938 10.625 22.136719 8.664062 24.5 8.664062 L 64.859375 8.664062 C 64.609375 9.644531 64.488281 10.597656 64.488281 11.550781 C 64.488281 18.449219 70.101562 24.0625 77 24.0625 C 83.898438 24.0625 89.511719 18.449219 89.511719 11.550781 C 89.511719 10.597656 89.390625 9.644531 89.144531 8.664062 L 129.5 8.664062 C 131.863281 8.664062 133.789062 10.625 133.789062 13.03125 L 133.789062 140.96875 C 133.789062 143.375 131.863281 145.335938 129.5 145.335938 Z M 24.5 145.335938 "/>
<path style=" stroke:none;fill-rule:nonzero;fill:rgb(76.078431%,58.823529%,32.54902%);fill-opacity:1;" d="M 129.5 9.625 C 131.332031 9.625 132.824219 11.152344 132.824219 13.03125 L 132.824219 140.96875 C 132.824219 142.847656 131.332031 144.375 129.5 144.375 L 24.5 144.375 C 22.667969 144.375 21.175781 142.847656 21.175781 140.96875 L 21.175781 13.03125 C 21.175781 11.152344 22.667969 9.625 24.5 9.625 L 63.675781 9.625 C 63.574219 10.269531 63.523438 10.910156 63.523438 11.550781 C 63.523438 18.980469 69.570312 25.023438 77 25.023438 C 84.429688 25.023438 90.476562 18.980469 90.476562 11.550781 C 90.476562 10.910156 90.425781 10.269531 90.324219 9.625 L 129.5 9.625 M 129.5 7.699219 L 87.84375 7.699219 C 88.273438 8.910156 88.550781 10.191406 88.550781 11.550781 C 88.550781 17.929688 83.378906 23.101562 77 23.101562 C 70.621094 23.101562 65.449219 17.929688 65.449219 11.550781 C 65.449219 10.191406 65.726562 8.910156 66.15625 7.699219 L 24.5 7.699219 C 21.601562 7.699219 19.25 10.085938 19.25 13.03125 L 19.25 140.96875 C 19.25 143.914062 21.601562 146.300781 24.5 146.300781 L 129.5 146.300781 C 132.398438 146.300781 134.75 143.914062 134.75 140.96875 L 134.75 13.03125 C 134.75 10.085938 132.398438 7.699219 129.5 7.699219 Z M 129.5 7.699219 "/>
<path style=" stroke:none;fill-rule:nonzero;fill:rgb(40%,47.45098%,56.078431%);fill-opacity:1;" d="M 77 1.925781 C 81.246094 1.925781 84.699219 5.378906 84.699219 9.625 C 84.699219 13.871094 81.246094 17.324219 77 17.324219 C 72.753906 17.324219 69.300781 13.871094 69.300781 9.625 C 69.300781 5.378906 72.753906 1.925781 77 1.925781 M 77 0 C 71.683594 0 67.375 4.308594 67.375 9.625 C 67.375 14.941406 71.683594 19.25 77 19.25 C 82.316406 19.25 86.625 14.941406 86.625 9.625 C 86.625 4.308594 82.316406 0 77 0 Z M 77 0 "/>
<path style=" stroke:none;fill-rule:nonzero;fill:rgb(100%,100%,100%);fill-opacity:1;" d="M 34.648438 23.101562 L 119.351562 23.101562 L 119.351562 130.898438 L 34.648438 130.898438 Z M 34.648438 23.101562 "/>
<path style=" stroke:none;fill-rule:nonzero;fill:rgb(40%,47.45098%,56.078431%);fill-opacity:1;" d="M 85.429688 7.699219 C 85.570312 8.320312 85.664062 8.960938 85.664062 9.625 C 85.664062 14.410156 81.785156 18.289062 77 18.289062 C 72.214844 18.289062 68.335938 14.410156 68.335938 9.625 C 68.335938 8.960938 68.429688 8.320312 68.570312 7.699219 L 50.050781 7.699219 L 50.050781 23.101562 C 50.050781 27.351562 53.496094 30.800781 57.75 30.800781 L 96.25 30.800781 C 100.503906 30.800781 103.949219 27.351562 103.949219 23.101562 L 103.949219 7.699219 Z M 85.429688 7.699219 "/>
</g>
</svg>
