<?xml version="1.0" standalone="no"?>
<!DOCTYPE svg PUBLIC "-//W3C//DTD SVG 20010904//EN"
 "http://www.w3.org/TR/2001/REC-SVG-20010904/DTD/svg10.dtd">
<svg version="1.0" xmlns="http://www.w3.org/2000/svg"
 width="700.000000pt" height="700.000000pt" viewBox="0 0 700.000000 700.000000"
 preserveAspectRatio="xMidYMid meet">
<metadata>
Created by potrace 1.11, written by Peter Selinger 2001-2013
</metadata>
<g transform="translate(0.000000,700.000000) scale(0.100000,-0.100000)"
fill="#000000" stroke="none">
<path d="M3365 6983 c-140 -51 -245 -157 -285 -288 l-12 -40 -1006 -4 c-848
-3 -1013 -5 -1042 -18 -45 -18 -96 -67 -123 -118 l-22 -40 0 -2975 0 -2975 22
-41 c25 -48 83 -101 129 -120 50 -21 4898 -21 4948 0 46 19 104 72 129 120
l22 41 0 2975 0 2975 -22 40 c-27 51 -78 100 -123 118 -29 13 -194 15 -1042
18 l-1007 4 -12 43 c-16 58 -75 148 -129 196 -23 21 -72 52 -109 69 -58 28
-78 32 -166 34 -77 3 -112 -1 -150 -14z m281 -109 c260 -123 264 -489 7 -620
-79 -40 -191 -46 -275 -14 -177 66 -268 274 -198 454 33 87 133 176 229 203
69 19 168 10 237 -23z m-1371 -971 c16 -113 84 -208 187 -264 l63 -34 975 0
975 0 63 34 c103 56 171 151 187 264 l7 47 344 0 344 0 0 -2450 0 -2450 -1920
0 -1920 0 0 2450 0 2450 344 0 344 0 7 -47z"/>
</g>
</svg>
