<?xml version="1.0" encoding="UTF-8" standalone="no"?>
<svg
   xmlns:dc="http://purl.org/dc/elements/1.1/"
   xmlns:cc="http://creativecommons.org/ns#"
   xmlns:rdf="http://www.w3.org/1999/02/22-rdf-syntax-ns#"
   xmlns:svg="http://www.w3.org/2000/svg"
   xmlns="http://www.w3.org/2000/svg"
   xmlns:sodipodi="http://sodipodi.sourceforge.net/DTD/sodipodi-0.dtd"
   xmlns:inkscape="http://www.inkscape.org/namespaces/inkscape"
   width="154pt"
   height="154pt"
   viewBox="0 0 154 154"
   version="1.1"
   id="svg17"
   sodipodi:docname="edit.svg"
   inkscape:version="0.92.4 (5da689c313, 2019-01-14)">
  <metadata
     id="metadata23">
    <rdf:RDF>
      <cc:Work
         rdf:about="">
        <dc:format>image/svg+xml</dc:format>
        <dc:type
           rdf:resource="http://purl.org/dc/dcmitype/StillImage" />
        <dc:title />
      </cc:Work>
    </rdf:RDF>
  </metadata>
  <defs
     id="defs21">
    <filter
       inkscape:collect="always"
       style="color-interpolation-filters:sRGB"
       id="filter6934"
       x="-0.071999502"
       width="1.143999"
       y="-0.072000498"
       height="1.144001">
      <feGaussianBlur
         inkscape:collect="always"
         stdDeviation="2.1174463"
         id="feGaussianBlur6936" />
    </filter>
  </defs>
  <sodipodi:namedview
     pagecolor="#ffffff"
     bordercolor="#666666"
     borderopacity="1"
     objecttolerance="10"
     gridtolerance="10"
     guidetolerance="10"
     inkscape:pageopacity="0"
     inkscape:pageshadow="2"
     inkscape:window-width="841"
     inkscape:window-height="725"
     id="namedview19"
     showgrid="false"
     inkscape:zoom="2.2987013"
     inkscape:cx="168.82021"
     inkscape:cy="114.57797"
     inkscape:window-x="943"
     inkscape:window-y="79"
     inkscape:window-maximized="0"
     inkscape:current-layer="g6982" />
  <path
     inkscape:connector-curvature="0"
     id="path2"
     d="M 128.33203,144.375 H 25.667969 V 9.625 H 96.25 l 32.08203,32.082031 z m 0,0"
     style="fill:#8fcaf8;fill-opacity:1;fill-rule:nonzero;stroke:none" />
  <path
     inkscape:connector-curvature="0"
     id="path4"
     d="M 123.51953,44.917969 H 93.042969 V 14.4375 Z m 0,0"
     style="fill:#e1f5fd;fill-opacity:1;fill-rule:nonzero;stroke:none" />
  <path
     inkscape:connector-curvature="0"
     id="path6-3"
     d="M 51.332031,67.375002 H 105.875 v 6.417969 H 51.332031 Z m 0,12.832031 h 41.710938 v 6.417969 H 51.332031 Z m 0,12.835938 H 105.875 v 6.414062 H 51.332031 Z m 0,12.832029 h 41.710938 v 6.41797 H 51.332031 Z m 0,0"
     style="fill:#1775d1;fill-opacity:1;fill-rule:nonzero;stroke:none;stroke-width:0.99999994" />
  <g
     id="g6982"
     transform="translate(1.9576272,3.5889831)">
    <g
       id="g6996"
       transform="translate(0,-0.32627116)">
      <g
         transform="translate(-7.1779662,-17.618645)"
         id="g6824"
         style="fill:#000000;filter:url(#filter6934)">
        <path
           inkscape:connector-curvature="0"
           id="path6814"
           d="m 152.96875,93.492188 -9.05078,-9.039063 c -1.375,-1.378906 -3.60938,-1.378906 -4.98828,0 l -4.26172,4.261719 14.04297,14.035156 4.25781,-4.261719 c 1.375,-1.378906 1.375,-3.613281 0,-4.996093"
           style="fill:#000000;fill-opacity:1;fill-rule:nonzero;stroke:none" />
        <path
           inkscape:connector-curvature="0"
           id="path6816"
           d="m 88.140625,135.24609 39.511715,-39.515621 14.03907,14.039061 -39.51172,39.51172 z m 0,0"
           style="fill:#000000;fill-opacity:1;fill-rule:nonzero;stroke:none" />
        <path
           inkscape:connector-curvature="0"
           id="path6818"
           d="m 148.70703,102.74219 -7.01562,7.01953 -14.04297,-14.039064 7.01953,-7.019531 z m 0,0"
           style="fill:#000000;fill-opacity:1;fill-rule:nonzero;stroke:none" />
        <path
           inkscape:connector-curvature="0"
           id="path6820"
           d="M 88.140625,135.23828 83.417969,154 102.17969,149.27344 Z m 0,0"
           style="fill:#000000;fill-opacity:1;fill-rule:nonzero;stroke:none" />
        <path
           inkscape:connector-curvature="0"
           id="path6822"
           d="M 85.804688,144.51172 83.417969,154 l 9.484375,-2.38672 z m 0,0"
           style="fill:#000000;fill-opacity:1;fill-rule:nonzero;stroke:none" />
      </g>
      <g
         id="g6812"
         transform="translate(-7.1779662,-17.618645)">
        <path
           style="fill:#e37373;fill-opacity:1;fill-rule:nonzero;stroke:none"
           d="m 152.96875,93.492188 -9.05078,-9.039063 c -1.375,-1.378906 -3.60938,-1.378906 -4.98828,0 l -4.26172,4.261719 14.04297,14.035156 4.25781,-4.261719 c 1.375,-1.378906 1.375,-3.613281 0,-4.996093"
           id="path6"
           inkscape:connector-curvature="0" />
        <path
           style="fill:#ff9700;fill-opacity:1;fill-rule:nonzero;stroke:none"
           d="m 88.140625,135.24609 39.511715,-39.515621 14.03907,14.039061 -39.51172,39.51172 z m 0,0"
           id="path8"
           inkscape:connector-curvature="0" />
        <path
           style="fill:#b0bdc5;fill-opacity:1;fill-rule:nonzero;stroke:none"
           d="m 148.70703,102.74219 -7.01562,7.01953 -14.04297,-14.039064 7.01953,-7.019531 z m 0,0"
           id="path10"
           inkscape:connector-curvature="0" />
        <path
           style="fill:#ffbf05;fill-opacity:1;fill-rule:nonzero;stroke:none"
           d="M 88.140625,135.23828 83.417969,154 102.17969,149.27344 Z m 0,0"
           id="path12"
           inkscape:connector-curvature="0" />
        <path
           style="fill:#35454c;fill-opacity:1;fill-rule:nonzero;stroke:none"
           d="M 85.804688,144.51172 83.417969,154 l 9.484375,-2.38672 z m 0,0"
           id="path14"
           inkscape:connector-curvature="0" />
      </g>
    </g>
  </g>
</svg>
