<?xml version="1.0" encoding="UTF-8"?>
<svg xmlns="http://www.w3.org/2000/svg" xmlns:xlink="http://www.w3.org/1999/xlink" width="154pt" height="154pt" viewBox="0 0 154 154" version="1.1">
<g id="surface144280">
<path style=" stroke:none;fill-rule:nonzero;fill:rgb(73.333333%,87.058824%,98.431373%);fill-opacity:1;" d="M 121.917969 54.542969 C 121.917969 53.898438 121.917969 53.578125 121.917969 52.9375 C 121.917969 41.386719 112.613281 32.082031 101.0625 32.082031 C 95.609375 32.082031 90.796875 34.328125 86.945312 37.539062 C 82.453125 28.554688 73.148438 22.457031 62.5625 22.457031 C 47.484375 22.457031 35.292969 34.648438 35.292969 49.730469 C 35.292969 51.332031 35.613281 52.9375 35.613281 54.542969 C 24.703125 55.824219 16.042969 65.128906 16.042969 76.679688 C 16.042969 89.191406 25.988281 99.136719 38.5 99.136719 C 38.5 99.136719 38.820312 99.136719 38.820312 99.136719 C 39.785156 99.457031 40.746094 99.457031 41.707031 99.457031 L 121.917969 99.457031 C 134.429688 99.457031 144.375 89.511719 144.375 77 C 144.375 64.488281 134.429688 54.542969 121.917969 54.542969 Z M 121.917969 54.542969 "/>
<path style=" stroke:none;fill-rule:nonzero;fill:rgb(24.705882%,31.764706%,70.980392%);fill-opacity:1;" d="M 106.195312 86.625 L 80.527344 57.75 L 54.863281 86.625 L 70.582031 86.625 L 70.582031 131.542969 L 89.832031 131.542969 L 89.832031 86.625 Z M 106.195312 86.625 "/>
</g>
</svg>
